<svg width="1420" height="1420" viewBox="0 0 1420 1420" fill="none" xmlns="http://www.w3.org/2000/svg">
<path d="M1420 668.307V710L1419.92 753.029C1419.91 757.056 1419.11 761.043 1417.56 764.762C1416.01 768.48 1413.75 771.857 1410.89 774.699C1408.04 777.542 1404.65 779.795 1400.93 781.329C1397.2 782.863 1393.21 783.649 1389.18 783.641L1370.07 783.605C1362.74 783.591 1355.65 786.206 1350.09 790.975C1344.53 795.744 1340.86 802.35 1339.76 809.592C1339.6 810.6 1339.45 811.607 1339.29 812.612C1338.16 819.793 1339.62 827.144 1343.41 833.346C1347.21 839.547 1353.09 844.193 1360 846.449L1378.16 852.391C1381.99 853.643 1385.53 855.638 1388.59 858.26C1391.65 860.882 1394.16 864.081 1395.98 867.674C1397.8 871.267 1398.9 875.183 1399.2 879.199C1399.51 883.215 1399.02 887.252 1397.77 891.081L1371.82 970.398C1370.56 974.227 1368.57 977.771 1365.95 980.828C1363.32 983.886 1360.12 986.397 1356.53 988.218C1352.94 990.04 1349.02 991.135 1345 991.443C1340.99 991.75 1336.95 991.264 1333.12 990.011L1314.91 984.052C1307.98 981.781 1300.46 982.063 1293.72 984.845C1286.97 987.628 1281.45 992.729 1278.13 999.228C1277.68 1000.13 1277.21 1001.03 1276.75 1001.93C1273.39 1008.42 1272.47 1015.89 1274.15 1023C1275.83 1030.1 1279.99 1036.38 1285.89 1040.68L1301.38 1051.98C1304.63 1054.35 1307.38 1057.35 1309.48 1060.79C1311.58 1064.23 1312.98 1068.04 1313.6 1072.02C1314.22 1076 1314.05 1080.07 1313.1 1083.98C1312.15 1087.9 1310.44 1091.59 1308.07 1094.84L1258.85 1162.25C1256.48 1165.5 1253.49 1168.25 1250.05 1170.35C1246.61 1172.45 1242.79 1173.85 1238.81 1174.47C1234.83 1175.09 1230.76 1174.92 1226.85 1173.97C1222.93 1173.02 1219.24 1171.31 1215.99 1168.94L1200.49 1157.62C1194.59 1153.31 1187.34 1151.26 1180.06 1151.83C1172.77 1152.4 1165.93 1155.56 1160.78 1160.74C1160.06 1161.45 1159.35 1162.17 1158.63 1162.88C1153.46 1168.01 1150.29 1174.83 1149.69 1182.1C1149.1 1189.36 1151.12 1196.6 1155.4 1202.51L1166.63 1218.05C1168.99 1221.32 1170.69 1225.01 1171.62 1228.93C1172.55 1232.85 1172.7 1236.92 1172.06 1240.89C1171.42 1244.87 1170 1248.68 1167.89 1252.11C1165.78 1255.54 1163.01 1258.52 1159.74 1260.88L1092.1 1309.77C1088.83 1312.13 1085.14 1313.82 1081.22 1314.75C1077.3 1315.68 1073.23 1315.83 1069.25 1315.19C1065.28 1314.55 1061.46 1313.14 1058.03 1311.02C1054.6 1308.91 1051.62 1306.14 1049.27 1302.88L1038.04 1287.35C1033.77 1281.43 1027.52 1277.24 1020.42 1275.53C1013.33 1273.82 1005.86 1274.7 999.353 1278.01C998.451 1278.47 997.548 1278.93 996.643 1279.38C990.122 1282.66 984.989 1288.17 982.17 1294.9C979.351 1301.63 979.032 1309.15 981.271 1316.09L987.146 1334.33C988.381 1338.16 988.848 1342.2 988.522 1346.22C988.195 1350.23 987.081 1354.14 985.243 1357.73C983.404 1361.31 980.878 1364.5 977.807 1367.11C974.737 1369.71 971.183 1371.69 967.348 1372.93L887.899 1398.51C884.065 1399.74 880.024 1400.21 876.009 1399.88C871.994 1399.56 868.083 1398.44 864.498 1396.6C860.914 1394.76 857.727 1392.24 855.119 1389.17C852.511 1386.1 850.533 1382.55 849.298 1378.71L843.437 1360.51C841.207 1353.57 836.573 1347.66 830.37 1343.84C824.166 1340.02 816.801 1338.53 809.602 1339.66C808.597 1339.82 807.592 1339.97 806.587 1340.12C799.357 1341.21 792.756 1344.85 787.979 1350.39C783.201 1355.92 780.564 1362.98 780.544 1370.29L780.49 1389.42C780.479 1393.44 779.674 1397.43 778.122 1401.15C776.57 1404.86 774.301 1408.24 771.444 1411.08C768.588 1413.92 765.2 1416.17 761.474 1417.7C757.748 1419.23 753.757 1420.01 749.728 1420L666.261 1419.76C662.233 1419.75 658.246 1418.95 654.529 1417.39C650.812 1415.84 647.437 1413.57 644.597 1410.72C641.756 1407.86 639.507 1404.47 637.976 1400.75C636.445 1397.02 635.663 1393.03 635.674 1389L635.729 1369.88C635.75 1362.56 633.141 1355.47 628.376 1349.9C623.611 1344.33 617.006 1340.66 609.764 1339.55C608.757 1339.4 607.751 1339.24 606.745 1339.08C599.564 1337.94 592.211 1339.4 586.006 1343.19C579.801 1346.98 575.151 1352.86 572.888 1359.77L566.931 1377.92C565.674 1381.74 563.676 1385.29 561.05 1388.34C558.425 1391.4 555.223 1393.9 551.628 1395.72C548.033 1397.54 544.115 1398.63 540.098 1398.93C536.081 1399.24 532.044 1398.75 528.216 1397.49L448.915 1371.46C445.088 1370.21 441.545 1368.21 438.49 1365.58C435.435 1362.96 432.926 1359.76 431.109 1356.16C429.291 1352.57 428.199 1348.65 427.896 1344.63C427.592 1340.62 428.083 1336.58 429.339 1332.75L435.316 1314.55C437.593 1307.62 437.319 1300.11 434.544 1293.36C431.768 1286.62 426.674 1281.09 420.179 1277.77C419.277 1277.31 418.376 1276.84 417.477 1276.38C410.992 1273.02 403.518 1272.09 396.408 1273.76C389.297 1275.43 383.019 1279.59 378.709 1285.48L367.394 1300.95C365.016 1304.2 362.02 1306.95 358.579 1309.05C355.137 1311.14 351.317 1312.54 347.336 1313.15C343.355 1313.77 339.291 1313.6 335.377 1312.65C331.463 1311.69 327.775 1309.98 324.523 1307.6L257.157 1258.33C253.906 1255.95 251.154 1252.96 249.06 1249.52C246.967 1246.07 245.571 1242.25 244.954 1238.27C244.336 1234.29 244.509 1230.23 245.462 1226.32C246.415 1222.4 248.129 1218.72 250.507 1215.46L261.834 1199.98C266.152 1194.08 268.215 1186.83 267.648 1179.55C267.081 1172.26 263.923 1165.42 258.745 1160.26C258.029 1159.54 257.315 1158.83 256.602 1158.11C251.47 1152.94 244.658 1149.77 237.395 1149.17C230.132 1148.57 222.894 1150.59 216.985 1154.85L201.429 1166.07C194.832 1170.83 186.614 1172.77 178.584 1171.47C170.553 1170.17 163.367 1165.74 158.608 1159.14L109.776 1091.45C105.017 1084.86 103.074 1076.64 104.374 1068.61C105.674 1060.58 110.111 1053.4 116.708 1048.64L132.243 1037.43C138.164 1033.17 142.364 1026.92 144.084 1019.83C145.804 1012.74 144.931 1005.27 141.622 998.761C141.163 997.858 140.706 996.953 140.251 996.045C136.978 989.52 131.48 984.38 124.748 981.555C118.017 978.729 110.497 978.404 103.546 980.638L85.3061 986.493C81.47 987.724 77.429 988.188 73.4137 987.857C69.3985 987.527 65.4877 986.408 61.9047 984.566C58.3217 982.724 55.1368 980.195 52.5317 977.122C49.9265 974.049 47.9524 970.493 46.7218 966.657L21.2151 887.194C19.9836 883.358 19.5197 879.318 19.8499 875.304C20.18 871.289 21.2978 867.379 23.1393 863.797C24.9809 860.214 27.5101 857.029 30.5827 854.424C33.6552 851.819 37.211 849.845 41.0468 848.614L59.2679 842.766C66.2115 840.537 72.1311 835.902 75.9603 829.697C79.7894 823.491 81.2767 816.122 80.1542 808.917L80.0748 808.392C78.9758 801.153 75.3191 794.547 69.7673 789.772C64.2155 784.997 57.1362 782.369 49.813 782.364H30.6742C22.5389 782.364 14.7369 779.133 8.98443 773.381C3.2318 767.629 5.77141e-05 759.828 5.84252e-05 751.693L0 710L0.0820072 666.971C0.0896892 662.944 0.890815 658.957 2.4395 655.238C3.98818 651.52 6.25408 648.143 9.10798 645.301C11.9619 642.458 15.3479 640.205 19.0725 638.671C22.7971 637.137 26.7875 636.351 30.8158 636.359L49.9316 636.395C57.2585 636.409 64.3474 633.794 69.9094 629.025C75.4714 624.256 79.1372 617.65 80.2407 610.408C80.3956 609.4 80.5518 608.393 80.7091 607.388C81.8445 600.207 80.3833 592.856 76.5874 586.654C72.7916 580.453 66.9098 575.807 59.9974 573.551L41.8419 567.609C38.0133 566.357 34.469 564.362 31.4113 561.74C28.3536 559.118 25.8425 555.919 24.0212 552.326C22.2 548.733 21.1042 544.817 20.7967 540.801C20.4891 536.785 20.9757 532.748 22.2287 528.919L48.1838 449.602C49.4364 445.773 51.431 442.229 54.0536 439.172C56.6762 436.114 59.8754 433.603 63.4686 431.782C67.0619 429.96 70.9787 428.865 74.9955 428.557C79.0122 428.25 83.0503 428.736 86.879 429.989L105.092 435.948C112.025 438.219 119.541 437.937 126.284 435.155C133.027 432.372 138.554 427.271 141.866 420.772C142.325 419.872 142.787 418.971 143.253 418.07C146.607 411.583 147.528 404.111 145.85 397.004C144.173 389.897 140.007 383.625 134.106 379.322L118.624 368.02C115.37 365.645 112.616 362.653 110.518 359.214C108.421 355.775 107.022 351.956 106.401 347.976C105.78 343.996 105.948 339.933 106.898 336.018C107.847 332.104 109.558 328.415 111.934 325.161L161.146 257.754C163.522 254.5 166.514 251.746 169.954 249.649C173.393 247.552 177.212 246.153 181.193 245.532C185.173 244.911 189.237 245.08 193.152 246.029C197.067 246.978 200.757 248.69 204.01 251.065L219.507 262.375C225.407 266.686 232.656 268.741 239.941 268.171C247.226 267.6 254.065 264.44 259.222 259.264C259.935 258.547 260.651 257.834 261.368 257.123C266.543 251.987 269.713 245.171 270.305 237.905C270.898 230.638 268.876 223.399 264.602 217.492L253.367 201.949C251.006 198.684 249.312 194.987 248.381 191.068C247.45 187.149 247.3 183.085 247.94 179.108C248.58 175.13 249.997 171.318 252.11 167.889C254.223 164.46 256.992 161.48 260.257 159.12L327.902 110.233C331.167 107.873 334.864 106.179 338.784 105.248C342.704 104.317 346.768 104.167 350.746 104.807C354.723 105.447 358.536 106.864 361.965 108.977C365.395 111.09 368.375 113.858 370.735 117.123L381.959 132.649C386.232 138.566 392.481 142.759 399.576 144.472C406.671 146.185 414.145 145.304 420.647 141.989C421.549 141.528 422.452 141.07 423.357 140.617C429.878 137.337 435.011 131.835 437.83 125.103C440.649 118.371 440.968 110.853 438.729 103.906L432.854 85.6713C431.619 81.8371 431.152 77.7973 431.478 73.7824C431.805 69.7676 432.919 65.8563 434.757 62.2721C436.596 58.6879 439.122 55.5008 442.193 52.893C445.263 50.2852 448.817 48.3076 452.652 47.0732L532.101 21.4933C535.935 20.2586 539.976 19.7913 543.991 20.1179C548.006 20.4446 551.917 21.5588 555.502 23.397C559.086 25.2352 562.273 27.7613 564.881 30.8312C567.489 33.901 569.467 37.4545 570.702 41.2886L576.563 59.4893C578.793 66.4259 583.427 72.3382 589.63 76.1612C595.834 79.9842 603.199 81.4665 610.398 80.341C611.403 80.1843 612.408 80.03 613.413 79.8779C620.643 78.7897 627.244 75.1488 632.021 69.6144C636.799 64.0802 639.436 57.0184 639.456 49.7078L639.51 30.5835C639.521 26.5558 640.326 22.5697 641.878 18.853C643.43 15.1362 645.699 11.7615 648.556 8.92157C651.412 6.08163 654.8 3.83207 658.526 2.30133C662.252 0.770583 666.243 -0.0113668 670.272 0.000124844L753.739 0.236932C757.767 0.248391 761.754 1.05307 765.471 2.60501C769.188 4.15696 772.563 6.42579 775.403 9.28196C778.244 12.1381 780.493 15.5257 782.024 19.2512C783.555 22.9768 784.337 26.9674 784.326 30.9951L784.271 50.1176C784.25 57.4439 786.859 64.5344 791.624 70.1C796.389 75.6655 802.994 79.3364 810.236 80.445C811.243 80.6012 812.249 80.7579 813.255 80.9151C820.436 82.0559 827.789 80.6005 833.994 76.8101C840.199 73.0197 844.849 67.1424 847.112 60.2329L853.069 42.0829C854.326 38.2559 856.324 34.7138 858.95 31.6589C861.575 28.604 864.777 26.0962 868.372 24.2786C871.967 22.461 875.885 21.3693 879.902 21.0658C883.919 20.7622 887.956 21.2528 891.784 22.5095L971.085 48.536C974.912 49.7924 978.455 51.7903 981.51 54.4156C984.565 57.041 987.073 60.2423 988.891 63.8369C990.709 67.4315 991.801 71.3489 992.104 75.3655C992.408 79.382 991.917 83.419 990.661 87.2459L984.684 105.452C982.407 112.38 982.681 119.894 985.456 126.638C988.232 133.383 993.326 138.913 999.821 142.232C1000.72 142.693 1001.62 143.156 1002.52 143.623C1009.01 146.984 1016.48 147.913 1023.59 146.243C1030.7 144.573 1036.98 140.413 1041.29 134.516L1052.61 119.049C1054.98 115.798 1057.98 113.047 1061.42 110.953C1064.86 108.859 1068.68 107.463 1072.66 106.846C1076.65 106.229 1080.71 106.401 1084.62 107.354C1088.54 108.307 1092.23 110.022 1095.48 112.4L1162.84 161.671C1166.09 164.049 1168.85 167.044 1170.94 170.485C1173.03 173.926 1174.43 177.746 1175.05 181.726C1175.66 185.706 1175.49 189.769 1174.54 193.683C1173.59 197.597 1171.87 201.284 1169.49 204.535L1158.17 220.018C1153.85 225.916 1151.79 233.166 1152.35 240.453C1152.92 247.741 1156.08 254.584 1161.26 259.744C1161.97 260.459 1162.69 261.174 1163.4 261.89C1168.53 267.064 1175.34 270.234 1182.6 270.832C1189.87 271.429 1197.11 269.414 1203.01 265.149L1218.57 253.93C1225.17 249.171 1233.39 247.228 1241.42 248.527C1249.45 249.827 1256.63 254.263 1261.39 260.859L1310.22 328.546C1314.98 335.143 1316.93 343.36 1315.63 351.39C1314.33 359.419 1309.89 366.604 1303.29 371.362L1287.76 382.568C1281.84 386.835 1277.64 393.078 1275.92 400.169C1274.2 407.261 1275.07 414.734 1278.38 421.239C1278.84 422.142 1279.29 423.047 1279.75 423.955C1283.02 430.48 1288.52 435.62 1295.25 438.445C1301.98 441.271 1309.5 441.596 1316.45 439.362L1334.69 433.507C1338.53 432.276 1342.57 431.812 1346.59 432.143C1350.6 432.473 1354.51 433.591 1358.1 435.433C1361.68 437.275 1364.86 439.805 1367.47 442.878C1370.07 445.951 1372.05 449.507 1373.28 453.343L1398.78 532.806C1400.02 536.641 1400.48 540.682 1400.15 544.696C1399.82 548.711 1398.7 552.621 1396.86 556.203C1395.02 559.786 1392.49 562.97 1389.42 565.576C1386.34 568.181 1382.79 570.155 1378.95 571.386L1360.73 577.234C1353.79 579.463 1347.87 584.097 1344.04 590.303C1340.21 596.509 1338.72 603.878 1339.85 611.083L1339.93 611.608C1341.02 618.847 1344.68 625.453 1350.23 630.228C1355.78 635.003 1362.86 637.631 1370.19 637.636H1389.33C1397.46 637.636 1405.26 640.867 1411.02 646.619C1416.77 652.371 1420 660.172 1420 668.307Z" fill="#C9C8B7"/>
</svg>
