<?xml version="1.0" encoding="UTF-8"?>
<svg xmlns="http://www.w3.org/2000/svg" width="584" height="194" viewBox="0 0 584 194" fill="none">
  <path d="M67.0145 93.7833C67.0145 110.36 62.7448 118.15 53.2046 118.15H46.6777V39.0331H54.2109C62.5002 39.0331 67.02 45.0608 67.02 60.8809V93.7833H67.0145ZM55.7175 12.6589H37.132C22.8218 12.6589 16.5451 20.4438 16.5451 32.4993V118.161H12.3755C5.54284 118.161 0 123.7 0 130.539C0 138.285 6.2767 144.569 14.0211 144.569H16.5451V176.665C16.5451 185.106 23.3667 192.096 31.8005 191.995C40.2454 191.895 46.6777 185.15 46.6777 176.676V144.524H56.4681C81.5804 144.524 96.8969 127.948 96.8969 102.33V55.8652C96.8969 30.2473 83.0871 12.6645 55.7175 12.6645" fill="#2E2936"></path>
  <path d="M167.464 118.117H146.871V55.8597C146.871 44.0544 150.385 39.2834 157.168 39.2834C163.95 39.2834 167.464 44.0544 167.464 55.8597V118.117ZM157.168 10.1511C131.055 10.1511 116.239 25.4707 116.239 55.3592V176.67C116.239 185.212 123.021 191.996 131.555 191.996C140.089 191.996 146.871 185.212 146.871 176.67V144.563H167.464V176.67C167.464 185.212 174.247 191.996 182.78 191.996C191.314 191.996 198.097 185.212 198.097 176.67V55.3592C198.097 25.4707 183.286 10.1511 157.168 10.1511Z" fill="#2E2936"></path>
  <path d="M286.721 11.6579C278.187 11.6579 271.405 18.4419 271.405 26.9831V148.294C271.405 160.1 267.891 164.871 261.109 164.871C254.326 164.871 250.812 160.1 250.812 148.294V26.9775C250.812 18.4363 244.035 11.6523 235.496 11.6523C226.956 11.6523 220.179 18.4363 220.179 26.9775V148.789C220.179 178.678 234.99 193.997 261.109 193.997C287.227 193.997 302.038 178.678 302.038 148.789V26.9775C302.038 18.4363 295.255 11.6523 286.721 11.6523" fill="#2E2936"></path>
  <path d="M375.084 162.352H355.248V26.9776C355.248 18.4364 348.465 11.658 339.926 11.658C331.386 11.658 324.615 18.4364 324.615 26.9776V172.149C324.615 184.205 330.886 191.995 345.202 191.995H375.084C383.374 191.995 389.895 185.467 389.895 177.176C389.895 168.885 383.368 162.357 375.084 162.357" fill="#2E2936"></path>
  <path d="M413.884 31.921L410.66 29.4409C407.958 27.4168 406.985 25.9933 406.985 23.213C406.985 20.8163 408.108 19.3872 409.909 19.3872C411.71 19.3872 412.611 20.5105 412.611 23.1351V23.6634C412.611 26.4382 414.335 28.0897 416.886 28.0897C419.288 28.0897 421.012 26.2936 421.012 23.6634V22.7626C421.012 14.5828 416.364 11.3577 409.759 11.3577C402.487 11.3577 397.834 15.7839 397.834 23.5911C397.834 29.4409 400.458 33.5669 405.106 37.0924L407.207 38.666C409.909 40.6901 411.405 42.4918 412.233 44.7383C412.683 46.0116 412.984 48.1191 412.984 50.1432C412.984 52.3174 412.683 54.4916 412.161 55.8484C411.488 57.4221 410.437 57.9448 409.159 57.9448C407.207 57.9448 405.634 56.5936 405.634 53.2183C405.634 50.3712 406.234 49.0922 406.757 47.2906C407.585 44.5158 406.084 42.4918 403.61 42.0413C401.209 41.5909 398.957 42.792 397.756 45.7169C397.006 47.5909 396.633 50.1432 396.633 53.0737C396.633 60.8753 401.058 66.1301 409.164 66.1301C417.27 66.1301 422.14 60.5806 422.14 48.8754C422.14 40.9959 418.916 35.7467 413.89 31.921" fill="#A4A486"></path>
  <path d="M435.789 24.8701C435.789 21.3446 436.839 19.9211 438.863 19.9211C440.887 19.9211 441.943 21.3446 441.943 24.8701V39.1276H435.794V24.8701H435.789ZM435.789 60.9587V47.602H441.937V60.9587C441.937 63.5111 443.961 65.5351 446.513 65.5351C449.065 65.5351 451.088 63.5111 451.088 60.9587V24.72C451.088 15.7896 446.663 11.2131 438.863 11.2131C431.063 11.2131 426.638 15.7896 426.638 24.72V60.9532C426.638 63.5055 428.661 65.5296 431.213 65.5296C433.765 65.5296 435.789 63.5055 435.789 60.9532" fill="#A4A486"></path>
  <path d="M466.538 24.8701C466.538 21.3446 467.589 19.9211 469.613 19.9211C471.637 19.9211 472.693 21.3446 472.693 24.8701V60.9587C472.693 63.5111 474.716 65.5351 477.268 65.5351C479.82 65.5351 481.844 63.5111 481.844 60.9587V24.72C481.844 15.7896 477.418 11.2131 469.613 11.2131C461.807 11.2131 457.387 15.7896 457.387 24.72V60.9532C457.387 63.5055 459.411 65.5296 461.963 65.5296C464.515 65.5296 466.538 63.5055 466.538 60.9532V24.8701Z" fill="#A4A486"></path>
  <path d="M493.319 65.5296C495.87 65.5296 497.894 63.5055 497.894 60.9532V16.24C497.894 13.6877 495.87 11.6636 493.319 11.6636C490.767 11.6636 488.743 13.6877 488.743 16.24V60.9532C488.743 63.5055 490.767 65.5296 493.319 65.5296Z" fill="#A4A486"></path>
  <path d="M506.295 20.8164H509.447V60.9532C509.447 63.5056 511.47 65.5296 514.022 65.5296C516.574 65.5296 518.598 63.5056 518.598 60.9532V20.8164H521.744C524.224 20.8164 526.17 18.8646 526.17 16.3901C526.17 13.9157 524.218 11.9639 521.744 11.9639H506.295C503.815 11.9639 501.869 13.9157 501.869 16.3901C501.869 18.8646 503.821 20.8164 506.295 20.8164Z" fill="#A4A486"></path>
  <path d="M544.472 39.122H538.323V24.8645C538.323 21.3391 539.374 19.9156 541.398 19.9156C543.421 19.9156 544.472 21.3391 544.472 24.8645V39.122ZM541.398 11.2131C533.597 11.2131 529.172 15.7896 529.172 24.7144V60.9532C529.172 63.5055 531.196 65.5296 533.742 65.5296C536.288 65.5296 538.323 63.5055 538.323 60.9532V47.5965H544.472V60.9532C544.472 63.5055 546.501 65.5296 549.047 65.5296C551.594 65.5296 553.628 63.5055 553.628 60.9532V24.7144C553.628 15.7896 549.203 11.2131 541.403 11.2131" fill="#A4A486"></path>
  <path d="M569 19.8433H570.874C573.354 19.8433 574.777 21.4948 574.777 25.6153V30.1917C574.777 35.2185 573.426 37.3983 570.574 37.3983H569V19.8433ZM564.575 65.5296C567.127 65.5296 569 63.5056 569 60.9532V45.2722H570.196C573.12 45.2722 574.621 47.2962 574.621 52.2452V60.9476C574.621 63.5 576.573 65.5241 579.124 65.5241C581.676 65.5241 583.628 63.5 583.628 60.9476V50.3713C583.628 46.2453 582.727 42.87 579.502 41.0683C582.505 38.6717 583.477 35.0628 583.477 31.1648V25.1649C583.477 17.5134 580.253 11.9639 571.63 11.9639H566.304C562.029 11.9639 560.155 14.2882 560.155 17.8915V60.9532C560.155 63.5056 562.029 65.5296 564.581 65.5296" fill="#A4A486"></path>
  <path d="M416.886 74.8103C414.334 74.8103 412.311 76.8344 412.311 79.3867V95.368H406.162V79.3867C406.162 76.8344 404.138 74.8103 401.586 74.8103C399.035 74.8103 397.011 76.8344 397.011 79.3867V124.1C397.011 126.652 399.035 128.676 401.586 128.676C404.138 128.676 406.162 126.652 406.162 124.1V104.221H412.311V124.1C412.311 126.652 414.334 128.676 416.886 128.676C419.438 128.676 421.462 126.652 421.462 124.1V79.3867C421.462 76.8344 419.438 74.8103 416.886 74.8103Z" fill="#A4A486"></path>
  <path d="M445.54 128.676C448.02 128.676 449.966 126.725 449.966 124.25C449.966 121.776 448.014 119.824 445.54 119.824H437.812V103.62H444.417C446.891 103.62 448.843 101.668 448.843 99.1938C448.843 96.7193 446.891 94.7675 444.417 94.7675H437.812V83.9632H445.54C448.02 83.9632 449.966 82.0114 449.966 79.5369C449.966 77.0624 448.014 75.1106 445.54 75.1106H434.966C430.985 75.1106 428.817 77.1402 428.817 81.0383V122.754C428.817 126.658 430.991 128.682 434.966 128.682H445.54V128.676Z" fill="#A4A486"></path>
  <path d="M460.54 74.8103C457.988 74.8103 455.964 76.8344 455.964 79.3867V124.1C455.964 126.652 457.988 128.676 460.54 128.676C463.091 128.676 465.115 126.652 465.115 124.1V79.3867C465.115 76.8344 463.091 74.8103 460.54 74.8103Z" fill="#A4A486"></path>
  <path d="M493.391 124.25C493.391 121.77 491.44 119.824 488.966 119.824H481.166L491.445 82.1615C492.496 78.2579 491.145 75.1106 487.62 75.1106H474.194C471.714 75.1106 469.769 77.0624 469.769 79.5369C469.769 82.0114 471.714 83.9632 474.194 83.9632H481.621L471.197 122.076C470.224 125.529 471.648 128.682 475.172 128.682H488.971C491.451 128.682 493.397 126.73 493.397 124.256" fill="#A4A486"></path>
  <path d="M521.672 115.77V79.3811C521.672 76.8288 519.648 74.8047 517.097 74.8047C514.545 74.8047 512.521 76.8288 512.521 79.3811V115.62C512.521 119.145 511.47 120.569 509.441 120.569C507.412 120.569 506.367 119.14 506.367 115.62V79.3811C506.367 76.8288 504.343 74.8047 501.791 74.8047C499.24 74.8047 497.216 76.8288 497.216 79.3811V115.77C497.216 124.695 501.641 129.271 509.441 129.271C517.241 129.271 521.672 124.695 521.672 115.77Z" fill="#A4A486"></path>
  <path d="M540.797 74.3599C532.997 74.3599 528.572 78.9363 528.572 87.8611V124.1C528.572 126.652 530.595 128.676 533.141 128.676C535.688 128.676 537.723 126.652 537.723 124.1V88.0113C537.723 84.4858 538.773 83.0623 540.797 83.0623C542.821 83.0623 543.871 84.4858 543.871 88.0113V124.1C543.871 126.652 545.901 128.676 548.447 128.676C550.993 128.676 553.028 126.652 553.028 124.1V87.8611C553.028 78.9363 548.602 74.3599 540.802 74.3599" fill="#A4A486"></path>
  <path d="M578.152 97.4644H574.927C572.603 97.4644 570.88 99.3384 570.88 101.668C570.88 103.998 572.603 105.872 574.927 105.872H575.155V115.475C575.155 119.001 573.954 120.43 572.003 120.43C570.051 120.43 568.928 119.001 568.928 115.475V88.0169C568.928 84.4914 570.051 83.0679 572.231 83.0679C574.254 83.0679 575.005 84.269 575.005 87.6443V87.7945C575.005 90.5748 576.956 92.2986 579.358 92.2986C581.76 92.2986 583.706 90.5025 583.706 87.7945V86.2986C583.706 79.32 580.331 74.5156 572.003 74.5156C564.203 74.5156 559.777 79.0976 559.777 88.0225V115.631C559.777 124.556 564.203 129.132 572.003 129.132C579.803 129.132 584.006 124.556 584.006 115.931V103.097C584.006 99.4218 581.91 97.47 578.157 97.47" fill="#A4A486"></path>
  <path d="M452.74 162.407C454.836 160.833 455.664 158.581 455.664 155.356V142.528C455.664 139.975 453.64 137.951 451.088 137.951C448.537 137.951 446.513 139.975 446.513 142.528V153.783C446.513 156.785 445.462 158.059 443.06 158.059H441.265V142.528C441.265 139.975 439.236 137.951 436.689 137.951C434.143 137.951 432.114 139.975 432.114 142.528V187.241C432.114 189.793 434.137 191.817 436.689 191.817C439.241 191.817 441.265 189.793 441.265 187.241V166.383H443.361C445.685 166.383 447.113 168.335 447.113 171.26V187.241C447.113 189.793 449.137 191.817 451.689 191.817C454.241 191.817 456.264 189.793 456.264 187.241V170.359C456.264 166.756 455.364 163.909 452.74 162.407Z" fill="#A4A486"></path>
  <path d="M480.343 182.965H474.416V142.528C474.416 139.975 472.393 137.951 469.841 137.951C467.289 137.951 465.265 139.975 465.265 142.528V185.89C465.265 189.493 467.139 191.817 471.414 191.817H480.337C482.817 191.817 484.763 189.866 484.763 187.391C484.763 184.917 482.811 182.965 480.337 182.965" fill="#A4A486"></path>
  <path d="M496.093 137.951C493.541 137.951 491.517 139.975 491.517 142.528V187.241C491.517 189.793 493.541 191.817 496.093 191.817C498.645 191.817 500.668 189.793 500.668 187.241V142.528C500.668 139.975 498.645 137.951 496.093 137.951Z" fill="#A4A486"></path>
  <path d="M537.873 137.501C534.798 137.501 532.096 138.252 530.073 140.504C528.049 138.252 525.347 137.501 522.273 137.501C514.473 137.501 510.197 142.077 510.197 151.002V187.241C510.197 189.793 512.221 191.817 514.773 191.817C517.325 191.817 519.348 189.793 519.348 187.241V151.002C519.348 147.477 520.399 146.053 522.428 146.053C524.457 146.053 525.503 147.482 525.503 151.002V187.241C525.503 189.793 527.526 191.817 530.078 191.817C532.63 191.817 534.654 189.793 534.654 187.241V151.002C534.654 147.477 535.704 146.053 537.734 146.053C539.763 146.053 540.808 147.482 540.808 151.002V187.241C540.808 189.793 542.832 191.817 545.383 191.817C547.935 191.817 549.959 189.793 549.959 187.241V151.002C549.959 142.077 545.684 137.501 537.884 137.501" fill="#A4A486"></path>
  <path d="M574.171 165.41H568.022V151.152C568.022 147.627 569.073 146.203 571.096 146.203C573.12 146.203 574.171 147.627 574.171 151.152V165.41ZM571.096 137.501C563.296 137.501 558.871 142.077 558.871 151.002V187.241C558.871 189.793 560.895 191.817 563.441 191.817C565.987 191.817 568.022 189.793 568.022 187.241V173.884H574.171V187.241C574.171 189.793 576.2 191.817 578.746 191.817C581.293 191.817 583.327 189.793 583.327 187.241V151.002C583.327 142.077 578.902 137.501 571.102 137.501" fill="#A4A486"></path>
  <path d="M535.782 9.17239H547.007C549.542 9.17239 551.594 7.12051 551.594 4.58485C551.594 2.04919 549.542 -0.00268555 547.007 -0.00268555H535.782C533.247 -0.00268555 531.196 2.04919 531.196 4.58485C531.196 7.12051 533.247 9.17239 535.782 9.17239Z" fill="#A4A486"></path>
</svg>
