<?xml version="1.0" encoding="UTF-8"?>
<svg xmlns="http://www.w3.org/2000/svg" width="720" height="720" viewBox="0 0 720 720" fill="none">
  <path d="M340.882 195.611L321.949 200.684L375.204 399.419L391.617 395.021C415.593 388.597 421.074 366.174 409.915 324.533L387.768 241.887C377.115 202.134 361.704 190.032 340.882 195.611Z" fill="#E1CAA8"></path>
  <path d="M682.761 235.868L673.478 238.355C669.901 239.309 666.1 238.95 662.764 237.344C659.428 235.737 656.779 232.989 655.295 229.598L654.649 228.113C653.154 224.746 652.911 220.956 653.962 217.426C655.013 213.895 657.289 210.855 660.382 208.853L668.507 203.592C670.218 202.483 671.694 201.048 672.85 199.369C674.006 197.69 674.82 195.799 675.245 193.805C675.67 191.811 675.698 189.753 675.327 187.748C674.957 185.744 674.195 183.832 673.085 182.122L650.106 146.68C648.997 144.969 647.561 143.494 645.882 142.338C644.202 141.182 642.311 140.368 640.317 139.943C638.323 139.518 636.265 139.49 634.26 139.861C632.255 140.232 630.342 140.994 628.632 142.104L620.496 147.384C617.397 149.393 613.683 150.23 610.022 149.742C606.361 149.255 602.995 147.475 600.531 144.725L599.494 143.577C597.015 140.838 595.598 137.302 595.5 133.61C595.401 129.917 596.628 126.311 598.957 123.444L605.062 115.905C606.347 114.322 607.307 112.501 607.888 110.546C608.468 108.591 608.658 106.541 608.445 104.513C608.233 102.485 607.623 100.519 606.65 98.727C605.678 96.9349 604.361 95.3521 602.776 94.0689L569.926 67.522C568.343 66.2375 566.521 65.2777 564.566 64.6975C562.611 64.1172 560.561 63.9278 558.533 64.1402C556.504 64.3526 554.538 64.9625 552.745 65.9352C550.953 66.9078 549.37 68.2241 548.087 69.8088L541.966 77.3512C539.641 80.2185 536.369 82.1616 532.739 82.8302C529.108 83.4989 525.359 82.8492 522.165 80.9983L520.831 80.2283C517.627 78.3887 515.186 75.4643 513.949 71.983C512.712 68.5018 512.761 64.6931 514.086 61.2444L517.578 52.1846C518.311 50.2799 518.661 48.2492 518.609 46.209C518.556 44.1688 518.101 42.159 517.27 40.2947C516.44 38.4305 515.249 36.7484 513.767 35.3448C512.286 33.9412 510.541 32.8437 508.635 32.1151L469.204 16.9642C467.301 16.2323 465.272 15.8827 463.234 15.9351C461.196 15.9875 459.188 16.441 457.325 17.2696C455.462 18.0983 453.78 19.2859 452.376 20.7645C450.972 22.2432 449.874 23.9839 449.143 25.8872L445.666 34.9429C444.342 38.3934 441.826 41.2559 438.573 43.0123C435.321 44.7686 431.547 45.3029 427.935 44.5182L426.438 44.1899C422.815 43.4295 419.584 41.3969 417.331 38.4603C415.078 35.5237 413.951 31.8774 414.155 28.1818L414.661 18.4963C414.77 16.4597 414.476 14.4217 413.796 12.4987C413.117 10.5757 412.065 8.80557 410.701 7.28939C409.337 5.77322 407.687 4.54079 405.846 3.66259C404.005 2.78439 402.009 2.27763 399.972 2.1713L357.807 0.0220852C355.77 -0.086682 353.732 0.207059 351.809 0.886512C349.885 1.56596 348.115 2.6178 346.598 3.98187C345.082 5.34595 343.849 6.99551 342.971 8.83623C342.092 10.677 341.586 12.6727 341.479 14.7094L340.965 24.3639C340.774 28.0407 339.277 31.5286 336.744 34.2009C334.21 36.8731 330.807 38.5546 327.145 38.943L325.536 39.1255C321.854 39.537 318.146 38.615 315.086 36.5268C312.025 34.4387 309.815 31.3227 308.856 27.7443L306.368 18.4628C305.316 14.4867 302.728 11.0909 299.173 9.02156C295.618 6.95225 291.387 6.37869 287.409 7.4269L246.61 18.3579C242.634 19.4233 239.244 22.0242 237.186 25.5886C235.128 29.153 234.57 33.3889 235.635 37.3644L238.122 46.6459C239.078 50.2268 238.718 54.0315 237.109 57.3703C235.5 60.7092 232.748 63.3613 229.352 64.846L229.089 64.9165C225.713 66.4108 221.914 66.6502 218.377 65.5915C214.84 64.5328 211.798 62.2456 209.798 59.1422L204.61 51.1648C203.511 49.4414 202.082 47.952 200.406 46.7822C198.73 45.6124 196.839 44.7852 194.842 44.3481C192.845 43.911 190.781 43.8727 188.769 44.2353C186.758 44.5979 184.837 45.3542 183.118 46.461L147.61 69.3379C145.894 70.4416 144.412 71.8729 143.249 73.5499C142.087 75.2269 141.266 77.1166 140.835 79.111C140.404 81.1053 140.37 83.1651 140.736 85.1725C141.102 87.1799 141.86 89.0954 142.967 90.8094L148.217 98.9528C150.219 102.058 151.045 105.777 150.545 109.438C150.045 113.099 148.252 116.46 145.491 118.916L144.338 119.937C141.584 122.404 138.038 123.802 134.342 123.88C130.646 123.958 127.044 122.71 124.189 120.362L116.676 114.234C115.096 112.946 113.278 111.981 111.326 111.396C109.373 110.81 107.324 110.615 105.296 110.821C103.268 111.027 101.3 111.631 99.505 112.598C97.7102 113.564 96.1234 114.875 94.8353 116.455L68.1543 149.253C66.8656 150.832 65.9008 152.65 65.315 154.602C64.7291 156.555 64.5337 158.604 64.7399 160.631C64.9461 162.659 65.5498 164.627 66.5167 166.421C67.4835 168.216 68.7944 169.802 70.3746 171.09L77.9024 177.214C80.7682 179.536 82.7102 182.805 83.3781 186.432C84.046 190.059 83.396 193.806 81.5451 196.996L80.775 198.33C78.9351 201.538 76.0079 203.982 72.5226 205.22C69.0374 206.458 65.2241 206.408 61.7726 205.079L52.7229 201.568C50.8215 200.83 48.7932 200.474 46.754 200.52C44.7148 200.566 42.7046 201.013 40.8384 201.837C38.9723 202.66 37.2867 203.843 35.8781 205.318C34.4696 206.793 33.3656 208.531 32.6294 210.433L17.2953 249.807C16.5568 251.708 16.2004 253.736 16.2464 255.775C16.2924 257.814 16.7399 259.824 17.5633 261.69C18.3867 263.556 19.5699 265.241 21.0452 266.649C22.5205 268.058 24.259 269.161 26.1612 269.898L35.2109 273.408C38.6597 274.741 41.5173 277.264 43.2662 280.521C45.0151 283.778 45.5396 287.554 44.7447 291.164L44.4163 292.662C43.6414 296.268 41.6043 299.48 38.6717 301.719C35.7391 303.957 32.1036 305.076 28.4197 304.873L18.7401 304.333C16.7043 304.22 14.6663 304.509 12.7424 305.184C10.8185 305.86 9.04651 306.907 7.52762 308.267C6.00873 309.627 4.77271 311.273 3.89019 313.111C3.00766 314.949 2.49593 316.942 2.38422 318.978L0.0237549 361.159C-0.089005 363.195 0.200447 365.232 0.875575 367.156C1.5507 369.08 2.59828 370.851 3.95845 372.37C5.31861 373.889 6.96472 375.124 8.80272 376.007C10.6407 376.889 12.6346 377.401 14.6704 377.512L24.2603 378.027C27.9344 378.229 31.4162 379.734 34.0806 382.271C36.7451 384.809 38.4179 388.212 38.7988 391.872L38.9812 393.481C39.385 397.164 38.4545 400.87 36.3587 403.927C34.2628 406.983 31.1405 409.186 27.5585 410.137L18.2756 412.624C16.3038 413.146 14.4543 414.051 12.8326 415.288C11.211 416.525 9.84906 418.069 8.82469 419.832C7.80032 421.596 7.13361 423.544 6.86267 425.565C6.59172 427.586 6.72186 429.641 7.24565 431.612L18.0365 472.376C18.5582 474.347 19.4635 476.196 20.7005 477.818C21.9375 479.439 23.4819 480.801 25.2456 481.825C27.0093 482.849 28.9576 483.515 30.9791 483.786C33.0006 484.057 35.0556 483.927 37.0268 483.403L46.3098 480.916C49.8863 479.97 53.683 480.336 57.0132 481.947C60.3434 483.557 62.987 486.306 64.4659 489.697L65.1125 491.181C66.6059 494.553 66.8458 498.347 65.7889 501.88C64.732 505.413 62.4478 508.452 59.348 510.45L51.2187 515.695C49.5041 516.8 48.0241 518.232 46.8633 519.909C45.7026 521.586 44.8839 523.476 44.4541 525.47C44.0243 527.464 43.9918 529.522 44.3584 531.529C44.725 533.535 45.4836 535.45 46.5907 537.162L69.5007 572.656C70.6057 574.371 72.0379 575.85 73.7153 577.011C75.3927 578.171 77.2825 578.99 79.2766 579.42C81.2706 579.849 83.3299 579.882 85.3365 579.515C87.3431 579.148 89.2578 578.39 90.9711 577.283L99.1117 572.018C102.216 570.015 105.933 569.188 109.593 569.685C113.254 570.181 116.616 571.97 119.073 574.727L120.095 575.879C122.566 578.634 123.968 582.182 124.047 585.881C124.125 589.58 122.875 593.185 120.523 596.042L114.398 603.569C113.109 605.15 112.144 606.97 111.559 608.924C110.974 610.878 110.78 612.928 110.988 614.958C111.196 616.987 111.802 618.956 112.772 620.75C113.741 622.545 115.055 624.131 116.638 625.418L149.405 652.087C150.986 653.376 152.806 654.34 154.76 654.925C156.715 655.51 158.766 655.704 160.795 655.496C162.825 655.288 164.794 654.682 166.589 653.713C168.384 652.743 169.97 651.429 171.257 649.846L177.382 642.319C179.706 639.456 182.976 637.517 186.603 636.849C190.229 636.181 193.975 636.829 197.167 638.676L198.501 639.446C201.71 641.286 204.154 644.213 205.392 647.697C206.63 651.182 206.58 654.995 205.251 658.446L201.758 667.505C200.274 671.344 200.375 675.615 202.04 679.379C203.704 683.143 206.797 686.092 210.636 687.576L250.036 702.801C253.875 704.286 258.147 704.184 261.912 702.52C265.676 700.855 268.625 697.763 270.11 693.925L273.606 684.88C274.936 681.43 277.458 678.57 280.715 676.818C283.972 675.067 287.749 674.539 291.361 675.332L292.859 675.66C296.47 676.428 299.688 678.461 301.933 681.392C304.178 684.323 305.302 687.959 305.102 691.646L304.581 701.335C304.469 703.372 304.759 705.41 305.436 707.334C306.112 709.258 307.161 711.03 308.523 712.548C309.884 714.067 311.532 715.302 313.372 716.183C315.211 717.064 317.206 717.574 319.243 717.684L361.43 719.977C363.466 720.089 365.505 719.798 367.429 719.122C369.354 718.446 371.126 717.397 372.645 716.035C374.163 714.673 375.399 713.026 376.28 711.187C377.161 709.347 377.672 707.353 377.781 705.316L378.311 695.657C378.51 691.985 380.011 688.503 382.545 685.837C385.079 683.171 388.48 681.495 392.139 681.109L393.748 680.927C397.434 680.519 401.144 681.447 404.203 683.541C407.263 685.636 409.469 688.759 410.421 692.343L412.909 701.625C413.432 703.594 414.338 705.441 415.576 707.061C416.813 708.68 418.358 710.04 420.121 711.062C421.884 712.085 423.831 712.75 425.851 713.02C427.871 713.29 429.925 713.16 431.895 712.637L472.73 701.779C474.701 701.255 476.55 700.348 478.17 699.109C479.79 697.871 481.151 696.325 482.173 694.561C483.196 692.796 483.86 690.847 484.129 688.826C484.398 686.804 484.266 684.75 483.74 682.78L481.253 673.498C480.303 669.92 480.666 666.121 482.276 662.788C483.887 659.455 486.638 656.809 490.031 655.329L491.516 654.682C494.886 653.189 498.679 652.947 502.211 654.001C505.743 655.054 508.783 657.334 510.783 660.43L516.044 668.554C518.281 672.008 521.799 674.434 525.823 675.295C529.848 676.157 534.051 675.385 537.506 673.149L572.978 650.199C576.434 647.963 578.86 644.446 579.722 640.421C580.584 636.397 579.812 632.195 577.575 628.74L572.31 620.601C570.302 617.499 569.469 613.781 569.963 610.118C570.456 606.456 572.243 603.091 575.001 600.63L576.153 599.609C578.895 597.131 582.433 595.717 586.127 595.621C589.821 595.526 593.428 596.755 596.294 599.087L603.817 605.195C605.4 606.483 607.22 607.446 609.175 608.029C611.129 608.613 613.18 608.805 615.209 608.596C617.238 608.386 619.206 607.779 621 606.808C622.795 605.838 624.38 604.523 625.666 602.94L652.3 570.154C653.586 568.572 654.548 566.751 655.13 564.796C655.712 562.842 655.903 560.792 655.692 558.763C655.481 556.735 654.873 554.768 653.901 552.975C652.929 551.182 651.614 549.598 650.029 548.314L642.486 542.194C639.616 539.872 637.67 536.6 637.002 532.97C636.333 529.339 636.985 525.589 638.839 522.397L639.609 521.063C641.449 517.859 644.374 515.418 647.856 514.181C651.338 512.945 655.147 512.993 658.596 514.318L667.657 517.809C669.56 518.542 671.588 518.893 673.626 518.842C675.664 518.791 677.672 518.339 679.535 517.512C681.399 516.684 683.081 515.498 684.486 514.021C685.891 512.544 686.991 510.804 687.723 508.902L702.912 469.484C703.646 467.581 703.997 465.553 703.946 463.516C703.895 461.478 703.443 459.47 702.615 457.607C701.788 455.744 700.602 454.062 699.124 452.658C697.647 451.253 695.907 450.153 694.004 449.421L684.943 445.93C681.494 444.603 678.634 442.085 676.881 438.833C675.127 435.581 674.596 431.808 675.383 428.198L675.711 426.7C676.476 423.087 678.507 419.866 681.438 417.619C684.369 415.371 688.007 414.245 691.695 414.443L701.386 414.963C703.422 415.073 705.46 414.78 707.383 414.102C709.305 413.424 711.076 412.373 712.592 411.011C714.109 409.648 715.342 408 716.222 406.161C717.101 404.322 717.61 402.327 717.718 400.292L719.978 358.104C720.087 356.068 719.794 354.031 719.116 352.108C718.438 350.186 717.387 348.416 716.025 346.9C714.662 345.383 713.014 344.15 711.174 343.271C709.335 342.391 707.34 341.883 705.304 341.775L695.648 341.261C691.973 341.066 688.488 339.567 685.818 337.034C683.149 334.501 681.47 331.099 681.083 327.44L680.901 325.831C680.489 322.146 681.413 318.436 683.505 315.375C685.596 312.314 688.717 310.104 692.299 309.148L701.582 306.661C703.552 306.136 705.398 305.227 707.017 303.988C708.635 302.749 709.993 301.204 711.014 299.44C712.035 297.676 712.699 295.729 712.967 293.708C713.235 291.688 713.103 289.635 712.577 287.666L701.642 246.858C701.116 244.889 700.208 243.043 698.969 241.425C697.73 239.807 696.184 238.449 694.42 237.428C692.656 236.407 690.708 235.744 688.688 235.476C686.667 235.208 684.614 235.34 682.644 235.866M490.823 325.858C508.068 390.209 480.733 442.166 417.625 459.074L393.025 465.665L414.667 546.43C416.107 551.392 416.547 556.589 415.963 561.722C415.379 566.855 413.782 571.821 411.264 576.332C408.747 580.843 405.359 584.811 401.297 588.003C397.235 591.196 392.58 593.551 387.601 594.932C382.551 596.292 377.281 596.639 372.096 595.954C366.911 595.268 361.913 593.564 357.39 590.938C352.867 588.312 348.908 584.818 345.741 580.655C342.575 576.493 340.264 571.746 338.941 566.686L317.34 486.076L310.996 487.776C301.649 490.28 291.69 488.969 283.309 484.131C274.928 479.294 268.813 471.326 266.309 461.98C264.099 453.733 265.256 444.947 269.526 437.553C273.795 430.159 280.827 424.764 289.075 422.555L299.549 419.748L241.888 204.571C233.771 174.283 244.297 150.506 280.269 140.868L326.978 128.353C395.764 109.924 442.302 144.79 459.547 209.142L490.823 325.858Z" fill="#E1CAA8"></path>
</svg>
