<?xml version="1.0" encoding="utf-8"?>
<!-- Generator: Adobe Illustrator 25.2.0, SVG Export Plug-In . SVG Version: 6.00 Build 0)  -->
<svg version="1.1" id="Ebene_1" xmlns="http://www.w3.org/2000/svg" xmlns:xlink="http://www.w3.org/1999/xlink" x="0px" y="0px"
	 viewBox="0 0 1920 1080" style="enable-background:new 0 0 1920 1080;" xml:space="preserve">
<style type="text/css">
	.st0{clip-path:url(#SVGID_2_);}
	.st1{fill:#AAA5B9;}
</style>
<g>
	<defs>
		<rect id="SVGID_1_" width="1920" height="1080"/>
	</defs>
	<clipPath id="SVGID_2_">
		<use xlink:href="#SVGID_1_"  style="overflow:visible;"/>
	</clipPath>
	<g class="st0">
		<g>
			<polygon class="st1" points="1741.9,-1.5 1741.9,-1.5 1741.9,-1.5 1681.7,-1.5 1681.7,1081.4 1681.7,1081.4 1681.7,1081.4 
				1741.9,1081.4 1741.9,1081.4 1741.9,1081.4 1741.9,1021.3 1922.5,1021.3 1922.5,961.1 1741.9,961.1 1741.9,900.9 1922.5,900.9 
				1922.5,840.8 1741.9,840.8 1741.9,780.6 1922.5,780.6 1922.5,720.5 1741.9,720.5 1741.9,660.3 1922.5,660.3 1922.5,600.2 
				1741.9,600.2 1741.9,540 1922.5,540 1922.5,479.8 1741.9,479.8 			"/>
			<polygon class="st1" points="1862.2,359.5 1862.2,-1.5 1802,-1.5 1802,359.5 1802,419.4 1802,419.7 1922.5,419.7 1922.5,359.5 
							"/>
			<path class="st1" d="M810.7,840.9c-98.3,0-91.5,120.3-91.5,120.3l0,0v120.2h60.2V961.2l0,0c0-0.1-5.5-60.2,30.2-60.2
				s30,60.2,30,60.2l0,0v120.2h60.2v-120h0.2C899.8,961.4,906.7,840.9,810.7,840.9L810.7,840.9z"/>
			<path class="st1" d="M810.7,720.5c-211.1,0-211.9,159.8-211.9,180.8l0,0v180.2H659V901.1c0-10.7,4.1-120.4,150.5-120.4
				s150.2,114.2,150.2,120.4c0,1.1,0,2.2,0.1,3.3v177.1h60.2V902.3c0-0.3,0.1-0.7,0.1-1C1020.1,880.3,1020,720.5,810.7,720.5
				L810.7,720.5z"/>
			<path class="st1" d="M1621.6-1.4L1621.6-1.4L1621.6-1.4l-60.2,0v289.4h-0.2c0,45.2-60.4,191.9-271.8,191.9
				s-269.1-127.5-269.1-217.7c0-0.6-0.2-4.5-0.2-4.5V-1.5h-60.2v263.4c0,2.3,0,4.7,0.1,7.1v353.1c-18.3-6.3-38.3-11.4-60.2-15.1
				V-1.4h-60.2v602.2c-8.9-0.4-18.1-0.6-27.5-0.6c-11.2,0-22.1,0.3-32.7,1V-1.4h-60.2v610c-21.9,4.3-41.9,10-60.2,17v-627h-60.2V656
				c-24.4,16-44.2,34.3-60.2,53.3V-1.5l0,0l0,0h-60.2v120.3l0,0v0l0,0v142.3c0,117.3-118.4,218.6-240.6,218.6v30.1l0,0v-30.1h-60.2
				v-60.2c242.8,0,240.6-208.9,240.6-208.9V-1.4h-60.2v212.2c0,60.2-60.1,148.8-180.5,148.8v-60.2c0,0,120.3,0.3,120.3-120V-1.4
				h-60.1v180.7c0,60.2-60.2,59.8-60.2,59.8V-1.5H-2.5v60.2h120.1v60.2H-2.5v60.2h120.1v60.2H-2.5v60.2h120.1v60.2H-2.5v60.2h120.1
				v60.2H-2.5V540h120.1v60.2H-2.5v60.2h120.1v60.2H-2.5v60.2h120.1v60.2H-2.5V901h120.1v60.2H-2.5v60.2h120.1v60.2l0,0h60.2l0,0
				V540h60.2v541.5h60.2V534.3c21.2-4.1,41.3-10.2,60.2-18.2v565.3h60.2V482.3c23.1-16.7,43.2-36.3,60.2-57.8V852c0,0.1,0,0.2,0,0.3
				l0,0v229.1l0,0v0.1h60.2v-0.1l0,0V852.3h0.2c0-45.2,60.4-191.9,271.9-191.9s268.9,127.5,268.9,217.7c0,0.8,0.2,1.5,0.4,2.2v0.1h0
				v201.2h0h60.2V518.1c18.2,6.3,38.2,11.4,60.1,15.1v548.3h60.2V539.4c8.9,0.4,18.1,0.6,27.5,0.6c11.2,0,22.1-0.3,32.7-1v542.4
				h60.2V531.5c21.9-4.3,41.9-10,60.2-17v566.9h60.2V484.1c24.4-16,44.2-34.3,60.2-53.3v650.6l0,0h60.2l0,0l0,0L1621.6-1.4
				L1621.6-1.4L1621.6-1.4z M1080.2,702.6c-15.9-19.2-35.7-37-60.1-52.2V437.7c15.9,19.2,35.7,37,60.1,52.1V702.6L1080.2,702.6z"/>
			<path class="st1" d="M1380.9,179.2l0-180.6h-60.2v180.2c0,0,3.2,60.4-30.2,60.4s-30-59.9-30-59.9V179l0-180.4h-60.2l-0.2,180.3
				c-0.2,4.1-5.7,120.4,89.1,120.4S1380.9,191.2,1380.9,179.2L1380.9,179.2z"/>
			<path class="st1" d="M1289.4,419.7c211.1,0,211.8-159.8,211.8-180.8l0,0V-1.5h-60.2v240.6l0,0c-0.1,10.8-4.2,120.4-150.5,120.4
				s-150.2-114.1-150.2-120.4c0-1.2,0-2.3-0.1-3.3V-1.5h-60.2v239.4c-0.1,0.3-0.1,0.6-0.1,1C1080,259.9,1080.1,419.7,1289.4,419.7z"
				/>
		</g>
	</g>
</g>
</svg>
